<?xml version="1.0" standalone="no"?>
<!DOCTYPE svg PUBLIC "-//W3C//DTD SVG 20010904//EN"
 "http://www.w3.org/TR/2001/REC-SVG-20010904/DTD/svg10.dtd">
<svg version="1.0" xmlns="http://www.w3.org/2000/svg"
 width="480.000000pt" height="45.000000pt" viewBox="0 0 480.000000 45.000000"
 preserveAspectRatio="xMidYMid meet">
<metadata>
Created by potrace 1.12, written by Peter Selinger 2001-2015
</metadata>
<g transform="translate(0.000000,45.000000) scale(0.100000,-0.100000)"
fill="#000000" stroke="none">
<path d="M0 225 l0 -225 205 0 205 0 0 110 0 110 -25 0 c-23 0 -25 4 -25 45 0
41 2 45 24 45 21 0 24 6 29 51 4 29 14 60 23 70 17 18 11 19 -209 19 l-227 0
0 -225z"/>
<path d="M600 411 c0 -39 -1 -40 -37 -43 -33 -3 -38 -7 -41 -30 -3 -27 -1 -28
39 -28 38 0 41 -2 35 -22 -3 -13 -6 -33 -6 -45 0 -20 -5 -23 -35 -23 l-35 0 0
-110 0 -110 837 0 c809 0 836 1 820 18 -25 28 -22 88 7 117 21 21 81 45 113
45 7 0 11 12 10 30 -2 26 -6 30 -30 30 -18 0 -39 11 -58 29 -41 42 -41 106 0
150 l29 31 -824 0 -824 0 0 -39z m989 -7 c18 -13 28 -14 47 -5 33 15 37 14 30
-6 -4 -9 -1 -20 6 -24 9 -6 7 -14 -8 -31 -12 -13 -28 -54 -37 -91 -36 -148
-154 -237 -297 -224 -30 2 -73 13 -95 22 l-40 18 40 8 c22 5 53 14 68 21 l28
11 -28 14 c-38 18 -60 52 -41 64 9 6 10 9 1 9 -14 0 -37 33 -48 68 -5 17 -2
22 11 22 14 0 15 3 6 12 -13 13 -17 90 -5 101 4 4 18 -4 32 -17 32 -30 96 -64
139 -72 29 -6 32 -4 32 17 1 77 96 126 159 83z"/>
<path d="M2433 438 c-20 -10 -20 -12 -6 -46 18 -43 11 -76 -28 -119 -16 -19
-29 -38 -29 -42 0 -5 12 -20 28 -33 67 -56 78 -102 37 -162 l-24 -36 1031 0
c827 0 1029 2 1016 13 -9 6 -18 31 -21 54 -16 131 -140 252 -277 272 -45 6
-45 6 -48 50 l-3 43 59 -4 c124 -9 261 -108 324 -235 36 -74 50 -169 27 -184
-8 -5 45 -9 134 -9 l147 0 0 225 0 225 -1115 0 -1115 0 0 -30 c0 -28 3 -30 35
-30 31 0 35 -3 35 -25 0 -22 -4 -25 -35 -25 -33 0 -35 -2 -35 -35 0 -31 -3
-35 -25 -35 -22 0 -25 4 -25 35 0 33 -2 35 -35 35 -31 0 -35 3 -35 25 0 22 4
25 35 25 32 0 35 2 35 30 0 27 -3 30 -32 29 -18 0 -43 -5 -55 -11z m812 -34
c35 -23 194 -24 229 -1 37 25 77 32 87 16 5 -8 9 -35 9 -60 0 -25 7 -60 16
-78 17 -35 21 -132 5 -172 -13 -36 -65 -77 -109 -86 -61 -13 -223 -9 -262 6
-44 18 -79 49 -92 81 -15 38 -11 136 6 171 9 18 16 51 16 75 0 64 8 77 41 70
16 -3 40 -13 54 -22z m983 -150 c83 -41 151 -136 152 -212 0 -33 0 -33 -42
-30 -38 3 -43 6 -49 34 -14 71 -72 129 -143 143 -28 6 -31 11 -34 49 -3 42 -3
42 30 42 19 0 57 -12 86 -26z"/>
<path d="M3205 197 c-33 -47 -14 -110 40 -133 45 -18 185 -18 230 0 54 23 73
86 40 133 -15 21 -23 22 -155 22 -132 0 -140 -1 -155 -22z"/>
<path d="M2259 406 c-14 -30 -4 -87 19 -117 21 -24 69 -29 83 -8 15 24 10 83
-11 117 -25 41 -74 46 -91 8z"/>
<path d="M2246 129 c-45 -35 -30 -89 30 -109 48 -16 100 -5 120 25 46 70 -78
141 -150 84z"/>
</g>
</svg>
